<svg width="11" height="12" viewBox="0 0 11 12" fill="none" xmlns="http://www.w3.org/2000/svg">
<path fill-rule="evenodd" clip-rule="evenodd" d="M7.125 2.625C7.125 2.12772 6.92746 1.65081 6.57583 1.29917C6.22419 0.947544 5.74728 0.75 5.25 0.75C4.75272 0.75 4.27581 0.947544 3.92417 1.29917C3.57254 1.65081 3.375 2.12772 3.375 2.625V3H7.125V2.625ZM7.875 2.625V3H10.5V10.5C10.5 10.8978 10.342 11.2794 10.0607 11.5607C9.77936 11.842 9.39782 12 9 12H1.5C1.10218 12 0.720644 11.842 0.43934 11.5607C0.158035 11.2794 0 10.8978 0 10.5V3H2.625V2.625C2.625 1.92881 2.90156 1.26113 3.39384 0.768845C3.88613 0.276562 4.55381 0 5.25 0C5.94619 0 6.61387 0.276562 7.10616 0.768845C7.59844 1.26113 7.875 1.92881 7.875 2.625ZM5.625 6C5.625 5.90054 5.58549 5.80516 5.51517 5.73484C5.44484 5.66451 5.34946 5.625 5.25 5.625C5.15054 5.625 5.05516 5.66451 4.98484 5.73484C4.91451 5.80516 4.875 5.90054 4.875 6V7.125H3.75C3.65054 7.125 3.55516 7.16451 3.48484 7.23483C3.41451 7.30516 3.375 7.40054 3.375 7.5C3.375 7.59946 3.41451 7.69484 3.48484 7.76517C3.55516 7.83549 3.65054 7.875 3.75 7.875H4.875V9C4.875 9.09946 4.91451 9.19484 4.98484 9.26517C5.05516 9.33549 5.15054 9.375 5.25 9.375C5.34946 9.375 5.44484 9.33549 5.51517 9.26517C5.58549 9.19484 5.625 9.09946 5.625 9V7.875H6.75C6.84946 7.875 6.94484 7.83549 7.01517 7.76517C7.08549 7.69484 7.125 7.59946 7.125 7.5C7.125 7.40054 7.08549 7.30516 7.01517 7.23483C6.94484 7.16451 6.84946 7.125 6.75 7.125H5.625V6Z" fill="black"/>
</svg>
