<svg width="25" height="25" viewBox="0 0 25 25" fill="none" xmlns="http://www.w3.org/2000/svg">
<path d="M0.833361 0C0.61234 0 0.400371 0.0875404 0.244086 0.243363C0.0878002 0.399186 0 0.610528 0 0.830895C0 1.05126 0.0878002 1.2626 0.244086 1.41843C0.400371 1.57425 0.61234 1.66179 0.833361 1.66179H2.68342L3.35178 4.33229L5.84852 17.6017C5.88427 17.7921 5.98562 17.964 6.13505 18.0878C6.28448 18.2117 6.4726 18.2795 6.66688 18.2797H8.3336C7.44952 18.2797 6.60165 18.6299 5.97651 19.2531C5.35136 19.8764 5.00016 20.7218 5.00016 21.6033C5.00016 22.4847 5.35136 23.3301 5.97651 23.9534C6.60165 24.5767 7.44952 24.9268 8.3336 24.9268C9.21769 24.9268 10.0656 24.5767 10.6907 23.9534C11.3158 23.3301 11.667 22.4847 11.667 21.6033C11.667 20.7218 11.3158 19.8764 10.6907 19.2531C10.0656 18.6299 9.21769 18.2797 8.3336 18.2797H20.0007C19.1166 18.2797 18.2687 18.6299 17.6436 19.2531C17.0184 19.8764 16.6672 20.7218 16.6672 21.6033C16.6672 22.4847 17.0184 23.3301 17.6436 23.9534C18.2687 24.5767 19.1166 24.9268 20.0007 24.9268C20.8847 24.9268 21.7326 24.5767 22.3578 23.9534C22.9829 23.3301 23.3341 22.4847 23.3341 21.6033C23.3341 20.7218 22.9829 19.8764 22.3578 19.2531C21.7326 18.6299 20.8847 18.2797 20.0007 18.2797H21.6674C21.8617 18.2795 22.0498 18.2117 22.1992 18.0878C22.3486 17.964 22.45 17.7921 22.4857 17.6017L24.9858 4.30736C25.0083 4.18744 25.0041 4.06405 24.9734 3.94595C24.9427 3.82785 24.8862 3.71794 24.8081 3.62404C24.73 3.53013 24.6321 3.45453 24.5214 3.4026C24.4107 3.35067 24.2898 3.32369 24.1675 3.32358H4.81682L4.1418 0.629818C4.09682 0.449986 3.99282 0.290313 3.84634 0.176191C3.69987 0.062069 3.51933 5.12022e-05 3.33344 0H0.833361ZM10.0003 21.6033C10.0003 22.044 9.82473 22.4667 9.51215 22.7783C9.19958 23.09 8.77565 23.2651 8.3336 23.2651C7.89156 23.2651 7.46763 23.09 7.15506 22.7783C6.84248 22.4667 6.66688 22.044 6.66688 21.6033C6.66688 21.1625 6.84248 20.7399 7.15506 20.4282C7.46763 20.1166 7.89156 19.9415 8.3336 19.9415C8.77565 19.9415 9.19958 20.1166 9.51215 20.4282C9.82473 20.7399 10.0003 21.1625 10.0003 21.6033ZM21.6674 21.6033C21.6674 22.044 21.4918 22.4667 21.1792 22.7783C20.8666 23.09 20.4427 23.2651 20.0007 23.2651C19.5586 23.2651 19.1347 23.09 18.8221 22.7783C18.5095 22.4667 18.3339 22.044 18.3339 21.6033C18.3339 21.1625 18.5095 20.7399 18.8221 20.4282C19.1347 20.1166 19.5586 19.9415 20.0007 19.9415C20.4427 19.9415 20.8666 20.1166 21.1792 20.4282C21.4918 20.7399 21.6674 21.1625 21.6674 21.6033ZM15.0005 7.47805V9.97074H17.5006C17.7216 9.97074 17.9336 10.0583 18.0898 10.2141C18.2461 10.3699 18.3339 10.5813 18.3339 10.8016C18.3339 11.022 18.2461 11.2333 18.0898 11.3892C17.9336 11.545 17.7216 11.6325 17.5006 11.6325H15.0005V14.1252C15.0005 14.3456 14.9127 14.5569 14.7564 14.7127C14.6001 14.8686 14.3881 14.9561 14.1671 14.9561C13.9461 14.9561 13.7341 14.8686 13.5779 14.7127C13.4216 14.5569 13.3338 14.3456 13.3338 14.1252V11.6325H10.8337C10.6127 11.6325 10.4007 11.545 10.2444 11.3892C10.0881 11.2333 10.0003 11.022 10.0003 10.8016C10.0003 10.5813 10.0881 10.3699 10.2444 10.2141C10.4007 10.0583 10.6127 9.97074 10.8337 9.97074H13.3338V7.47805C13.3338 7.25769 13.4216 7.04635 13.5779 6.89052C13.7341 6.7347 13.9461 6.64716 14.1671 6.64716C14.3881 6.64716 14.6001 6.7347 14.7564 6.89052C14.9127 7.04635 15.0005 7.25769 15.0005 7.47805Z" fill="black"/>
</svg>
