<svg width="27" height="17" viewBox="0 0 27 17" fill="none" xmlns="http://www.w3.org/2000/svg">
<path d="M1.6875 0C1.23995 0 0.810725 0.177264 0.494257 0.492795C0.17779 0.808326 0 1.23628 0 1.68251L0 15.1426C0 15.5888 0.17779 16.0167 0.494257 16.3323C0.810725 16.6478 1.23995 16.8251 1.6875 16.8251H8.57756C8.67656 16.2452 8.82169 15.6843 9.01294 15.1426H5.0625C5.0625 14.2501 4.70692 13.3942 4.07399 12.7631C3.44105 12.1321 2.58261 11.7776 1.6875 11.7776V5.04752C2.58261 5.04752 3.44105 4.693 4.07399 4.06193C4.70692 3.43087 5.0625 2.57497 5.0625 1.68251H21.9375C21.9375 2.57497 22.2931 3.43087 22.926 4.06193C23.559 4.693 24.4174 5.04752 25.3125 5.04752V10.9834C25.9538 11.5555 26.5224 12.2083 27 12.925V1.68251C27 1.23628 26.8222 0.808326 26.5057 0.492795C26.1893 0.177264 25.7601 0 25.3125 0L1.6875 0Z" fill="black"/>
</svg>
