<svg width="6" height="9" viewBox="0 0 6 9" fill="none" xmlns="http://www.w3.org/2000/svg">
<path d="M4.65372e-05 6.1992C0.0848976 7.272 0.935213 8.1072 2.46073 8.208V9H3.13773V8.2026C4.7174 8.0928 5.63993 7.2504 5.63993 6.03C5.63993 4.9176 4.93585 4.3452 3.67211 4.05L3.13773 3.924V1.764C3.81654 1.8414 4.24621 2.2104 4.34911 2.7216H5.53703C5.45218 1.6866 4.56214 0.8784 3.13773 0.7902V0H2.46073V0.81C1.11214 0.9414 0.195023 1.7496 0.195023 2.8944C0.195023 3.906 0.877444 4.5504 2.013 4.8132L2.46073 4.923V7.2126C1.76748 7.1082 1.30711 6.7266 1.20421 6.1992H4.65372e-05ZM2.45531 3.762C1.78914 3.609 1.42807 3.294 1.42807 2.8224C1.42807 2.2932 1.81803 1.8972 2.46073 1.782V3.762H2.45531ZM3.23522 5.1048C4.04582 5.292 4.41772 5.5944 4.41772 6.129C4.41772 6.7392 3.95374 7.1568 3.13773 7.2342V5.0832L3.23522 5.1048Z" fill="black"/>
</svg>
