<svg width="17" height="17" viewBox="0 0 17 17" fill="none" xmlns="http://www.w3.org/2000/svg">
<path fill-rule="evenodd" clip-rule="evenodd" d="M8.5 15.2547C10.3035 15.2547 12.0331 14.5404 13.3083 13.269C14.5836 11.9975 15.3 10.273 15.3 8.47485C15.3 6.67672 14.5836 4.95223 13.3083 3.68075C12.0331 2.40928 10.3035 1.69497 8.5 1.69497C6.69653 1.69497 4.96692 2.40928 3.69167 3.68075C2.41643 4.95223 1.7 6.67672 1.7 8.47485C1.7 10.273 2.41643 11.9975 3.69167 13.269C4.96692 14.5404 6.69653 15.2547 8.5 15.2547ZM17 8.47485C17 10.7225 16.1045 12.8781 14.5104 14.4675C12.9164 16.0568 10.7543 16.9497 8.5 16.9497C6.24566 16.9497 4.08365 16.0568 2.48959 14.4675C0.895533 12.8781 0 10.7225 0 8.47485C0 6.22718 0.895533 4.07157 2.48959 2.48223C4.08365 0.892884 6.24566 0 8.5 0C10.7543 0 12.9164 0.892884 14.5104 2.48223C16.1045 4.07157 17 6.22718 17 8.47485Z" fill="black"/>
</svg>
