<svg width="7" height="6" viewBox="0 0 7 6" fill="none" xmlns="http://www.w3.org/2000/svg">
<path d="M6.5937 3.42327L6.597 3.28678C6.59666 2.72045 6.44965 2.1638 6.17019 1.67074C5.89074 1.17769 5.48832 0.764941 5.00191 0.472475C4.5155 0.180008 3.96158 0.0177356 3.3938 0.00137317C2.82602 -0.0149893 2.26363 0.115113 1.76108 0.379079C1.25854 0.643046 0.832882 1.03193 0.525333 1.50807C0.217783 1.98421 0.0387671 2.53146 0.00562142 3.09683C-0.0275243 3.6622 0.0863241 4.22652 0.33614 4.73515C0.585957 5.24377 0.963274 5.67945 1.43155 6C2.85715 4.64861 4.65436 3.75152 6.5937 3.42327Z" fill="black"/>
</svg>
