<svg width="29" height="29" viewBox="0 0 29 29" fill="none" xmlns="http://www.w3.org/2000/svg">
<path fill-rule="evenodd" clip-rule="evenodd" d="M0 14.5C0 10.6544 1.52767 6.96623 4.24695 4.24695C6.96623 1.52767 10.6544 0 14.5 0C18.3456 0 22.0338 1.52767 24.753 4.24695C27.4723 6.96623 29 10.6544 29 14.5C29 18.3456 27.4723 22.0338 24.753 24.753C22.0338 27.4723 18.3456 29 14.5 29C10.6544 29 6.96623 27.4723 4.24695 24.753C1.52767 22.0338 0 18.3456 0 14.5ZM14.5 1.8125C12.1107 1.81263 9.77004 2.48741 7.74735 3.75918C5.72467 5.03094 4.1022 6.84801 3.06668 9.00123C2.03117 11.1544 1.6247 13.5563 1.89406 15.9303C2.16342 18.3044 3.09766 20.5541 4.58925 22.4206C5.87612 20.3471 8.70906 18.125 14.5 18.125C20.2909 18.125 23.1221 20.3453 24.4108 22.4206C25.9023 20.5541 26.8366 18.3044 27.1059 15.9303C27.3753 13.5563 26.9688 11.1544 25.9333 9.00123C24.8978 6.84801 23.2753 5.03094 21.2526 3.75918C19.23 2.48741 16.8893 1.81263 14.5 1.8125Z" fill="black"/>
</svg>
