<svg width="26" height="29" viewBox="0 0 26 29" fill="none" xmlns="http://www.w3.org/2000/svg">
<path d="M19.0312 7.25V6.34375C19.0312 4.66128 18.3629 3.04773 17.1732 1.85804C15.9835 0.668357 14.37 0 12.6875 0C11.005 0 9.39148 0.668357 8.20179 1.85804C7.01211 3.04773 6.34375 4.66128 6.34375 6.34375V7.25H0V25.375C0 26.3364 0.381919 27.2584 1.06174 27.9383C1.74156 28.6181 2.66359 29 3.625 29H21.75C22.7114 29 23.6334 28.6181 24.3133 27.9383C24.9931 27.2584 25.375 26.3364 25.375 25.375V7.25H19.0312ZM12.6875 1.8125C13.8893 1.8125 15.0418 2.2899 15.8916 3.13967C16.7414 3.98945 17.2188 5.14199 17.2188 6.34375V7.25H8.15625V6.34375C8.15625 5.14199 8.63365 3.98945 9.48342 3.13967C10.3332 2.2899 11.4857 1.8125 12.6875 1.8125ZM12.6875 14.4873C15.7035 11.3861 23.2453 16.8127 12.6875 23.7891C2.12969 16.8109 9.6715 11.3861 12.6875 14.4873Z" fill="black"/>
</svg>
