<svg width="28" height="15" viewBox="0 0 28 15" fill="none" xmlns="http://www.w3.org/2000/svg">
<path d="M15.3196 0.546489C14.9696 0.196572 14.4949 0 14 0C13.5051 0 13.0304 0.196572 12.6804 0.546489L0.273689 12.9513C0.186919 13.0381 0.118089 13.1411 0.0711295 13.2545C0.0241699 13.3678 0 13.4893 0 13.6121C0 13.7348 0.0241699 13.8563 0.0711295 13.9696C0.118089 14.083 0.186919 14.186 0.273689 14.2728C0.44893 14.448 0.686606 14.5465 0.934434 14.5465C1.05715 14.5465 1.17866 14.5223 1.29203 14.4754C1.4054 14.4284 1.50841 14.3596 1.59518 14.2728L14 1.86611L26.4048 14.2728C26.5801 14.448 26.8177 14.5465 27.0656 14.5465C27.3134 14.5465 27.5511 14.448 27.7263 14.2728C27.9016 14.0976 28 13.8599 28 13.6121C28 13.3642 27.9016 13.1266 27.7263 12.9513L23.3325 8.55942V2.413C23.3325 2.16548 23.2342 1.92811 23.0592 1.75309C22.8842 1.57807 22.6468 1.47974 22.3993 1.47974H20.5328C20.2853 1.47974 20.0479 1.57807 19.8729 1.75309C19.6979 1.92811 19.5995 2.16548 19.5995 2.413V4.82639L15.3196 0.546489Z" fill="black"/>
</svg>
