<svg width="29" height="29" viewBox="0 0 29 29" fill="none" xmlns="http://www.w3.org/2000/svg">
<path d="M11.7811 23.5621C14.288 23.5665 16.7305 22.7674 18.75 21.282H18.7482C18.8013 21.3545 18.8606 21.424 18.9258 21.4905L25.9038 28.4685C26.2437 28.8086 26.7047 28.9997 27.1855 28.9999C27.6663 29 28.1275 28.8092 28.4676 28.4694C28.8076 28.1295 28.9988 27.6685 28.999 27.1877C28.9991 26.7069 28.8083 26.2457 28.4685 25.9056L21.4905 18.9276C21.4257 18.862 21.356 18.8014 21.282 18.7464C22.7667 16.7278 23.5658 14.2868 23.5621 11.7811C23.5621 8.65652 22.3209 5.65997 20.1115 3.45059C17.9021 1.24121 14.9056 0 11.7811 0C8.65652 0 5.65997 1.24121 3.45059 3.45059C1.24121 5.65997 0 8.65652 0 11.7811C0 14.9056 1.24121 17.9021 3.45059 20.1115C5.65997 22.3209 8.65652 23.5621 11.7811 23.5621ZM11.7811 8.12349C14.797 5.09123 22.3387 10.3963 11.7811 17.2185C1.22342 10.3963 8.7651 5.09304 11.7811 8.12349Z" fill="black"/>
</svg>
