<svg width="14" height="14" viewBox="0 0 14 14" fill="none" xmlns="http://www.w3.org/2000/svg">
<path d="M0.466667 0C0.342899 0 0.2242 0.0491665 0.136684 0.136683C0.0491665 0.2242 0 0.342899 0 0.466667C0 0.590434 0.0491665 0.709133 0.136684 0.79665C0.2242 0.884167 0.342899 0.933333 0.466667 0.933333H1.50267L1.87693 2.4332L3.27507 9.88587C3.29509 9.99281 3.35184 10.0894 3.43552 10.1589C3.51919 10.2285 3.62454 10.2666 3.73333 10.2667H4.66667C4.1716 10.2667 3.6968 10.4633 3.34673 10.8134C2.99667 11.1635 2.8 11.6383 2.8 12.1333C2.8 12.6284 2.99667 13.1032 3.34673 13.4533C3.6968 13.8033 4.1716 14 4.66667 14C5.16174 14 5.63653 13.8033 5.9866 13.4533C6.33667 13.1032 6.53333 12.6284 6.53333 12.1333C6.53333 11.6383 6.33667 11.1635 5.9866 10.8134C5.63653 10.4633 5.16174 10.2667 4.66667 10.2667H11.2C10.7049 10.2667 10.2301 10.4633 9.88007 10.8134C9.53 11.1635 9.33333 11.6383 9.33333 12.1333C9.33333 12.6284 9.53 13.1032 9.88007 13.4533C10.2301 13.8033 10.7049 14 11.2 14C11.6951 14 12.1699 13.8033 12.5199 13.4533C12.87 13.1032 13.0667 12.6284 13.0667 12.1333C13.0667 11.6383 12.87 11.1635 12.5199 10.8134C12.1699 10.4633 11.6951 10.2667 11.2 10.2667H12.1333C12.2421 10.2666 12.3475 10.2285 12.4312 10.1589C12.5148 10.0894 12.5716 9.99281 12.5916 9.88587L13.9916 2.4192C14.0042 2.35185 14.0018 2.28255 13.9846 2.21622C13.9674 2.14989 13.9358 2.08816 13.8921 2.03542C13.8484 1.98267 13.7935 1.94021 13.7315 1.91105C13.6695 1.88188 13.6019 1.86673 13.5333 1.86667H2.69733L2.31933 0.353733C2.29414 0.252732 2.2359 0.163052 2.15388 0.0989564C2.07186 0.0348606 1.97076 2.87574e-05 1.86667 0H0.466667ZM5.6 12.1333C5.6 12.3809 5.50167 12.6183 5.32663 12.7933C5.1516 12.9683 4.9142 13.0667 4.66667 13.0667C4.41913 13.0667 4.18173 12.9683 4.0067 12.7933C3.83167 12.6183 3.73333 12.3809 3.73333 12.1333C3.73333 11.8858 3.83167 11.6484 4.0067 11.4734C4.18173 11.2983 4.41913 11.2 4.66667 11.2C4.9142 11.2 5.1516 11.2983 5.32663 11.4734C5.50167 11.6484 5.6 11.8858 5.6 12.1333ZM12.1333 12.1333C12.1333 12.3809 12.035 12.6183 11.86 12.7933C11.6849 12.9683 11.4475 13.0667 11.2 13.0667C10.9525 13.0667 10.7151 12.9683 10.54 12.7933C10.365 12.6183 10.2667 12.3809 10.2667 12.1333C10.2667 11.8858 10.365 11.6484 10.54 11.4734C10.7151 11.2983 10.9525 11.2 11.2 11.2C11.4475 11.2 11.6849 11.2983 11.86 11.4734C12.035 11.6484 12.1333 11.8858 12.1333 12.1333ZM10.5971 4.99707L7.79707 7.79707C7.75372 7.84053 7.70222 7.87501 7.64552 7.89853C7.58883 7.92206 7.52805 7.93417 7.46667 7.93417C7.40528 7.93417 7.3445 7.92206 7.28781 7.89853C7.23111 7.87501 7.17962 7.84053 7.13627 7.79707L5.73627 6.39707C5.69288 6.35368 5.65846 6.30217 5.63498 6.24548C5.6115 6.18879 5.59941 6.12803 5.59941 6.06667C5.59941 6.00531 5.6115 5.94455 5.63498 5.88786C5.65846 5.83117 5.69288 5.77966 5.73627 5.73627C5.77966 5.69288 5.83117 5.65846 5.88786 5.63498C5.94455 5.6115 6.00531 5.59941 6.06667 5.59941C6.12803 5.59941 6.18879 5.6115 6.24548 5.63498C6.30217 5.65846 6.35368 5.69288 6.39707 5.73627L7.46667 6.8068L9.93627 4.33627C9.97965 4.29288 10.0312 4.25846 10.0879 4.23498C10.1445 4.2115 10.2053 4.19941 10.2667 4.19941C10.328 4.19941 10.3888 4.2115 10.4455 4.23498C10.5022 4.25846 10.5537 4.29288 10.5971 4.33627C10.6405 4.37966 10.6749 4.43117 10.6984 4.48786C10.7218 4.54455 10.7339 4.60531 10.7339 4.66667C10.7339 4.72803 10.7218 4.78879 10.6984 4.84548C10.6749 4.90217 10.6405 4.95368 10.5971 4.99707Z" fill="black"/>
</svg>
