<svg width="26" height="30" viewBox="0 0 26 30" fill="none" xmlns="http://www.w3.org/2000/svg">
<path d="M13 29.7159C13.9851 29.7159 14.9298 29.3246 15.6264 28.628C16.323 27.9315 16.7143 26.9867 16.7143 26.0016H9.28571C9.28571 26.9867 9.67704 27.9315 10.3736 28.628C11.0702 29.3246 12.0149 29.7159 13 29.7159ZM14.8479 2.04262C14.8738 1.7844 14.8453 1.5236 14.7642 1.27706C14.6832 1.03052 14.5513 0.803706 14.3772 0.611247C14.2031 0.418788 13.9906 0.264958 13.7534 0.159676C13.5162 0.0543947 13.2595 0 13 0C12.7405 0 12.4838 0.0543947 12.2466 0.159676C12.0094 0.264958 11.7969 0.418788 11.6228 0.611247C11.4487 0.803706 11.3168 1.03052 11.2358 1.27706C11.1547 1.5236 11.1262 1.7844 11.1521 2.04262C9.05273 2.46893 7.16529 3.60804 5.80973 5.26687C4.45416 6.9257 3.71386 9.00222 3.71429 11.1445C3.71429 13.1836 2.78571 22.2873 0 24.1445H26C23.2143 22.2873 22.2857 13.1836 22.2857 11.1445C22.2857 6.6502 19.0914 2.89877 14.8479 2.04262Z" fill="black"/>
</svg>
