<svg width="29" height="26" viewBox="0 0 29 26" fill="none" xmlns="http://www.w3.org/2000/svg">
<path d="M8.18043 0C7.85477 0.000105042 7.53492 0.086286 7.2533 0.249811C6.97167 0.413337 6.73827 0.648396 6.57674 0.931173L0.243283 12.0166C0.0838556 12.2957 0 12.6115 0 12.933C0 13.2544 0.0838556 13.5703 0.243283 13.8494L6.57674 24.9348C6.73827 25.2175 6.97167 25.4526 7.2533 25.6161C7.53492 25.7796 7.85477 25.8658 8.18043 25.8659H20.8178C21.1434 25.8658 21.4633 25.7796 21.7449 25.6161C22.0265 25.4526 22.2599 25.2175 22.4215 24.9348L28.7568 13.8494C28.9162 13.5703 29.0001 13.2544 29.0001 12.933C29.0001 12.6115 28.9162 12.2957 28.7568 12.0166L22.4215 0.931173C22.2599 0.648396 22.0265 0.413337 21.7449 0.249811C21.4633 0.086286 21.1434 0.000105042 20.8178 0H8.18043ZM17.4515 17.914C16.8209 18.2837 16.1234 18.525 15.3992 18.624C14.675 18.723 13.9383 18.6778 13.2316 18.491C12.5249 18.3042 11.8622 17.9794 11.2815 17.5354C10.7008 17.0913 10.2137 16.5369 9.84824 15.9038C9.48275 15.2708 9.24608 14.5717 9.15186 13.8468C9.05765 13.122 9.10774 12.3856 9.29926 11.6802C9.49078 10.9747 9.81995 10.3142 10.2678 9.73645C10.7157 9.15875 11.2734 8.67534 11.9088 8.31405C13.1812 7.59063 14.688 7.39985 16.1006 7.78334C17.5131 8.16683 18.7166 9.09345 19.4484 10.361C20.1802 11.6285 20.381 13.1341 20.0069 14.5491C19.6328 15.9642 18.7142 17.1738 17.4515 17.914Z" fill="black"/>
</svg>
